{
	"asset":{
		"generator":"Khronos glTF Blender I/O v5.1.20",
		"version":"2.0"
	},
	"scene":0,
	"scenes":[
		{
			"name":"Scene",
			"nodes":[
				0,
				1,
				2
			]
		}
	],
	"nodes":[
		{
			"mesh":0,
			"name":"mesh_node"
		},
		{
			"mesh":1,
			"name":"Meshy_Rustic Doorway in a Timbered Plaster Wall_Mesh_0"
		},
		{
			"mesh":2,
			"name":"Meshy_Rustic Doorway in a Timbered Plaster Wall_Mesh_0.001"
		}
	],
	"materials":[
		{
			"doubleSided":true,
			"emissiveFactor":[
				1,
				1,
				1
			],
			"name":"Material_0"
		},
		{
			"doubleSided":true,
			"emissiveFactor":[
				1,
				1,
				1
			],
			"name":"Material_0.001"
		}
	],
	"meshes":[
		{
			"name":"mesh.001",
			"primitives":[
				{
					"attributes":{
						"POSITION":0,
						"NORMAL":1
					},
					"indices":2
				}
			]
		},
		{
			"name":"Mesh_0",
			"primitives":[
				{
					"attributes":{
						"POSITION":3,
						"NORMAL":4,
						"TEXCOORD_0":5
					},
					"indices":6,
					"material":0
				}
			]
		},
		{
			"name":"Mesh_0.001",
			"primitives":[
				{
					"attributes":{
						"POSITION":7,
						"NORMAL":8,
						"TEXCOORD_0":9
					},
					"indices":6,
					"material":1
				}
			]
		}
	],
	"accessors":[
		{
			"bufferView":0,
			"componentType":5126,
			"count":837250,
			"max":[
				13.892728805541992,
				1,
				13.893547058105469
			],
			"min":[
				-13.92112922668457,
				0,
				-13.920565605163574
			],
			"type":"VEC3"
		},
		{
			"bufferView":1,
			"componentType":5126,
			"count":837250,
			"type":"VEC3"
		},
		{
			"bufferView":2,
			"componentType":5125,
			"count":848730,
			"type":"SCALAR"
		},
		{
			"bufferView":3,
			"componentType":5126,
			"count":269022,
			"max":[
				0.9487760066986084,
				0.5664899945259094,
				0.15745100378990173
			],
			"min":[
				-0.9507129788398743,
				-0.5700230002403259,
				-0.1591549962759018
			],
			"type":"VEC3"
		},
		{
			"bufferView":4,
			"componentType":5126,
			"count":269022,
			"type":"VEC3"
		},
		{
			"bufferView":5,
			"componentType":5126,
			"count":269022,
			"type":"VEC2"
		},
		{
			"bufferView":6,
			"componentType":5125,
			"count":1388448,
			"type":"SCALAR"
		},
		{
			"bufferView":7,
			"componentType":5126,
			"count":269022,
			"max":[
				0.9487760066986084,
				0.5664899945259094,
				0.15745100378990173
			],
			"min":[
				-0.9507129788398743,
				-0.5700230002403259,
				-0.1591549962759018
			],
			"type":"VEC3"
		},
		{
			"bufferView":8,
			"componentType":5126,
			"count":269022,
			"type":"VEC3"
		},
		{
			"bufferView":9,
			"componentType":5126,
			"count":269022,
			"type":"VEC2"
		}
	],
	"bufferViews":[
		{
			"buffer":0,
			"byteLength":10047000,
			"byteOffset":0,
			"target":34962
		},
		{
			"buffer":0,
			"byteLength":10047000,
			"byteOffset":10047000,
			"target":34962
		},
		{
			"buffer":0,
			"byteLength":3394920,
			"byteOffset":20094000,
			"target":34963
		},
		{
			"buffer":0,
			"byteLength":3228264,
			"byteOffset":23488920,
			"target":34962
		},
		{
			"buffer":0,
			"byteLength":3228264,
			"byteOffset":26717184,
			"target":34962
		},
		{
			"buffer":0,
			"byteLength":2152176,
			"byteOffset":29945448,
			"target":34962
		},
		{
			"buffer":0,
			"byteLength":5553792,
			"byteOffset":32097624,
			"target":34963
		},
		{
			"buffer":0,
			"byteLength":3228264,
			"byteOffset":37651416,
			"target":34962
		},
		{
			"buffer":0,
			"byteLength":3228264,
			"byteOffset":40879680,
			"target":34962
		},
		{
			"buffer":0,
			"byteLength":2152176,
			"byteOffset":44107944,
			"target":34962
		}
	],
	"buffers":[
		{
			"byteLength":46260120,
			"uri":"%E7%84%A1%E6%A8%99%E9%A1%8C.bin"
		}
	]
}
